HIERARCHY
ROOT Hips
{
	OFFSET 0.000000 0.000000 0.000000
	CHANNELS 6 Xposition Yposition Zposition Zrotation Yrotation Xrotation 
	JOINT LHipJoint
	{
		OFFSET 0.000000 0.000000 0.000000
		CHANNELS 3 Zrotation Yrotation Xrotation
		JOINT LeftUpLeg
		{
			OFFSET 1.363060 -1.794630 0.839290
			CHANNELS 3 Zrotation Yrotation Xrotation
			JOINT LeftLeg
			{
				OFFSET 2.448110 -6.726130 0.000000
				CHANNELS 3 Zrotation Yrotation Xrotation
				JOINT LeftFoot
				{
					OFFSET 2.562200 -7.039590 0.000000
					CHANNELS 3 Zrotation Yrotation Xrotation
					JOINT LeftToeBase
					{
						OFFSET 0.157640 -0.433110 2.322550
						CHANNELS 3 Zrotation Yrotation Xrotation
						End Site
						{
							OFFSET 0.000000 0.000000 0.000000
						}
					}
				}
			}
		}
	}
	JOINT RHipJoint
	{
		OFFSET 0.000000 0.000000 0.000000
		CHANNELS 3 Zrotation Yrotation Xrotation
		JOINT RightUpLeg
		{
			OFFSET -1.305520 -1.794630 0.839290
			CHANNELS 3 Zrotation Yrotation Xrotation
			JOINT RightLeg
			{
				OFFSET -2.542530 -6.985550 0.000000
				CHANNELS 3 Zrotation Yrotation Xrotation
				JOINT RightFoot
				{
					OFFSET -2.568260 -7.056230 0.000000
					CHANNELS 3 Zrotation Yrotation Xrotation
					JOINT RightToeBase
					{
						OFFSET -0.164730 -0.452590 2.363150
						CHANNELS 3 Zrotation Yrotation Xrotation
						End Site
						{
							OFFSET 0.000000 0.000000 0.000000
						}
					}
				}
			}
		}
	}
	JOINT LowerBack
	{
		OFFSET 0.000000 0.000000 0.000000
		CHANNELS 3 Zrotation Yrotation Xrotation
		JOINT Spine
		{
			OFFSET 0.028270 2.035590 -0.193380
			CHANNELS 3 Zrotation Yrotation Xrotation
			JOINT Spine1
			{
				OFFSET 0.056720 2.048850 -0.042750
				CHANNELS 3 Zrotation Yrotation Xrotation
				JOINT Neck
				{
					OFFSET 0.000000 0.000000 0.000000
					CHANNELS 3 Zrotation Yrotation Xrotation
					JOINT Neck1
					{
						OFFSET -0.054170 1.746240 0.172020
						CHANNELS 3 Zrotation Yrotation Xrotation
						JOINT Head
						{
							OFFSET 0.104070 1.761360 -0.123970
							CHANNELS 3 Zrotation Yrotation Xrotation
							End Site
							{
								OFFSET 0.000000 0.000000 0.000000
							}
						}
					}
				}
				JOINT LeftShoulder
				{
					OFFSET 0.000000 0.000000 0.000000
					CHANNELS 3 Zrotation Yrotation Xrotation
					JOINT LeftArm
					{
						OFFSET 3.362410 1.200890 -0.311210
						CHANNELS 3 Zrotation Yrotation Xrotation
						JOINT LeftForeArm
						{
							OFFSET 4.983000 -0.000000 -0.000000
							CHANNELS 3 Zrotation Yrotation Xrotation
							JOINT LeftHand
							{
								OFFSET 3.483560 -0.000000 -0.000000
								CHANNELS 3 Zrotation Yrotation Xrotation
								JOINT LeftFingerBase
								{
									OFFSET 0.000000 0.000000 0.000000
									CHANNELS 3 Zrotation Yrotation Xrotation
									JOINT LeftHandIndex1
									{
										OFFSET 0.715260 -0.000000 -0.000000
										CHANNELS 3 Zrotation Yrotation Xrotation
										End Site
										{
											OFFSET 0.000000 0.000000 0.000000
										}
									}
								}
								JOINT LThumb
								{
									OFFSET 0.000000 0.000000 0.000000
									CHANNELS 3 Zrotation Yrotation Xrotation
									End Site
									{
										OFFSET 0.000000 0.000000 0.000000
									}
								}
							}
						}
					}
				}
				JOINT RightShoulder
				{
					OFFSET 0.000000 0.000000 0.000000
					CHANNELS 3 Zrotation Yrotation Xrotation
					JOINT RightArm
					{
						OFFSET -3.136600 1.374050 -0.404650
						CHANNELS 3 Zrotation Yrotation Xrotation
						JOINT RightForeArm
						{
							OFFSET -5.241900 -0.000000 -0.000000
							CHANNELS 3 Zrotation Yrotation Xrotation
							JOINT RightHand
							{
								OFFSET -3.444170 -0.000000 -0.000000
								CHANNELS 3 Zrotation Yrotation Xrotation
								JOINT RightFingerBase
								{
									OFFSET 0.000000 0.000000 0.000000
									CHANNELS 3 Zrotation Yrotation Xrotation
									JOINT RightHandIndex1
									{
										OFFSET -0.622530 -0.000000 -0.000000
										CHANNELS 3 Zrotation Yrotation Xrotation
										End Site
										{
											OFFSET 0.000000 0.000000 0.000000
										}
									}
								}
								JOINT RThumb
								{
									OFFSET 0.000000 0.000000 0.000000
									CHANNELS 3 Zrotation Yrotation Xrotation
									End Site
									{
										OFFSET 0.000000 0.000000 0.000000
									}
								}
							}
						}
					}
				}
			}
		}
	}
}
MOTION
Frames: 5
Frame Time: 0.008333
1.848033 17.467028 2.437802 -166.302331 -80.264962 -173.309933 -10.748974 1.302782 0.257615 -7.261634 5.571450 -15.299455 -2.123126 -0.893082 6.558395 0.973589 5.706750 -5.142783 0.281401 -0.000000 -37.371800 9.284593 -0.037773 -0.155143 11.313009 -1.564346 -45.002066 1.166289 -3.245740 42.509789 -0.774538 -3.104237 1.627905 -0.898900 0.000001 -53.365200 0.840811 -2.127453 0.831125 -0.808743 -2.233980 -2.840311 -8.166089 -2.341660 0.378195 11.140560 -0.854704 -3.954015 -4.315980 -0.342205 0.835824 0.000000 0.000000 0.000000 -5.423259 2.561332 3.056552 -55.179245 -15.572792 12.094269 -3.539875 -47.302095 0.027373 -8.775641 -1.825057 0.151049 -0.085735 0.142825 0.000000 0.000000 0.000000 0.000000 0.000000 0.000000 0.000000 19.321155 -0.067967 1.608443 66.199200 4.652680 -13.721480 3.574480 14.133788 0.018121 3.638631 10.500575 0.332621 0.060936 -0.099174 0.000000 0.000000 0.000000 0.000000 0.000000 0.000000 0.000000 
1.596483 17.448739 2.419034 -166.364097 -80.908530 -173.402695 -10.805256 1.427567 0.103135 -7.241127 6.064604 -13.862394 -2.177098 -0.900036 5.833271 0.858742 5.003887 -4.979383 0.253600 0.000001 -37.991601 9.146218 0.011744 0.004980 11.477923 -1.503851 -45.405590 1.532731 -3.007192 38.862551 -0.623715 -2.400543 1.850412 -0.833101 -0.000000 -53.636900 1.112257 -2.380847 0.875099 -0.754445 -2.502990 -2.813938 -8.235150 -2.603603 0.395518 11.319351 -1.072409 -3.936217 -4.333144 -0.343429 0.844786 0.000000 0.000000 0.000000 -4.775857 2.053928 3.119847 -54.006235 -17.192647 12.615825 -3.405590 -49.360003 0.030126 -8.815165 -1.828453 0.153494 -0.080013 0.160740 0.000000 0.000000 0.000000 0.000000 0.000000 0.000000 0.000000 19.585858 -0.449214 1.652744 66.202448 3.332293 -14.799680 3.596199 13.238515 0.017846 3.586655 10.472636 0.326598 0.062027 -0.094113 0.000000 0.000000 0.000000 0.000000 0.000000 0.000000 0.000000 
1.345485 17.420727 2.394942 -167.176890 -81.587835 -172.720837 -10.851685 1.542458 -0.067694 -7.283221 6.516900 -12.469993 -2.242492 -0.906480 5.222614 0.749609 4.280788 -4.930401 0.214100 -0.000000 -38.798400 9.028155 0.078555 0.210280 11.390318 -1.374007 -45.735572 1.895525 -2.718077 34.991125 -0.459103 -1.668583 2.246997 -0.761000 -0.000000 -53.797900 1.238725 -2.636312 0.894201 -0.732095 -2.767401 -2.787082 -8.306403 -2.859725 0.427303 11.530047 -1.391716 -3.944413 -4.352607 -0.344787 0.846427 0.000000 0.000000 0.000000 -4.055999 1.524176 3.173708 -52.675213 -18.807755 13.011113 -3.258193 -51.332012 0.032770 -8.850196 -1.816962 0.154724 -0.073192 0.178448 -0.000000 0.000000 0.000000 0.000000 0.000000 0.000000 0.000000 19.915192 -0.930651 1.689678 66.152009 2.003833 -15.457652 3.615550 12.649114 0.017562 3.543505 10.442311 0.321377 0.063044 -0.088738 0.000000 0.000000 0.000000 0.000000 0.000000 0.000000 0.000000 
1.094712 17.383200 2.365919 -168.880691 -82.298066 -171.116657 -10.892821 1.643774 -0.250858 -7.373876 6.912573 -11.108546 -2.315937 -0.915403 4.696168 0.645459 3.542004 -4.972581 0.169200 0.000000 -39.841500 8.928065 0.163171 0.464754 11.047891 -1.171055 -46.014438 2.243941 -2.374243 30.925390 -0.288125 -0.948462 2.789078 -0.683501 -0.000000 -53.835799 1.236507 -2.891189 0.882997 -0.738457 -3.026077 -2.761715 -8.376764 -3.109074 0.470210 11.759960 -1.795314 -3.973902 -4.372890 -0.346227 0.842197 0.000000 0.000000 0.000000 -3.275202 0.973973 3.216498 -51.193364 -20.405768 13.268015 -3.097975 -53.205069 0.035328 -8.884966 -1.796883 0.155237 -0.065106 0.195948 -0.000000 0.000000 0.000000 0.000000 0.000000 0.000000 0.000000 20.287079 -1.495468 1.716933 66.071837 0.654067 -15.796703 3.633215 12.354624 0.017285 3.521323 10.414505 0.318259 0.063930 -0.083142 0.000000 0.000000 0.000000 0.000000 0.000000 0.000000 0.000000 
0.844008 17.336484 2.332619 -171.639131 -83.035497 -168.425300 -10.931066 1.727118 -0.444587 -7.496450 7.242602 -9.762968 -2.393766 -0.928770 4.229669 0.545181 2.790279 -5.074495 0.125100 0.000000 -41.141000 8.844152 0.263998 0.768056 10.457629 -0.904726 -46.256960 2.566003 -1.973947 26.693916 -0.120535 -0.284159 3.437848 -0.604600 0.000000 -53.760000 1.130703 -3.145409 0.843090 -0.768367 -3.280476 -2.738154 -8.442832 -3.353176 0.522149 11.996028 -2.270802 -4.022633 -4.392447 -0.347652 0.832758 0.000000 0.000000 0.000000 -2.451004 0.409914 3.247074 -49.566333 -21.981471 13.376733 -2.926566 -54.966064 0.037827 -8.924448 -1.773374 0.155637 -0.055629 0.213282 -0.000000 0.000000 0.000000 0.000000 0.000000 0.000000 0.000000 20.679955 -2.132644 1.732998 65.977586 -0.715929 -15.907684 3.649439 12.333278 0.017029 3.523912 10.392983 0.317543 0.064690 -0.077460 0.000000 0.000000 0.000000 0.000000 0.000000 0.000000 0.000000 
